<svg xmlns="http://www.w3.org/2000/svg" viewBox="0 0 1400 300" preserveAspectRatio="xMidYMid slice">
  <defs>
    <filter id="nb-xl"><feGaussianBlur stdDeviation="45"/></filter>
    <filter id="nb-lg"><feGaussianBlur stdDeviation="28"/></filter>
    <filter id="nb-md"><feGaussianBlur stdDeviation="14"/></filter>
    <filter id="nb-sm"><feGaussianBlur stdDeviation="6"/></filter>
    <filter id="sglow">
      <feGaussianBlur stdDeviation="2.5" result="b"/>
      <feMerge><feMergeNode in="b"/><feMergeNode in="SourceGraphic"/></feMerge>
    </filter>
  </defs>
  <!-- Deep space base -->
  <rect width="1400" height="300" fill="#030919"/>
  <!-- Nebula clouds -->
  <ellipse cx="210"  cy="110" rx="340" ry="210" fill="#4f46e5" opacity="0.22" filter="url(#nb-xl)"/>
  <ellipse cx="1180" cy="180" rx="300" ry="190" fill="#0891b2" opacity="0.20" filter="url(#nb-xl)"/>
  <ellipse cx="680"  cy="60"  rx="260" ry="140" fill="#7c3aed" opacity="0.16" filter="url(#nb-lg)"/>
  <ellipse cx="420"  cy="260" rx="180" ry="90"  fill="#be185d" opacity="0.11" filter="url(#nb-lg)"/>
  <ellipse cx="1020" cy="40"  rx="200" ry="110" fill="#06b6d4" opacity="0.14" filter="url(#nb-md)"/>
  <ellipse cx="860"  cy="230" rx="160" ry="80"  fill="#6366f1" opacity="0.13" filter="url(#nb-md)"/>
  <!-- Subtle galaxy core -->
  <ellipse cx="700" cy="150" rx="500" ry="160" fill="#1e1b4b" opacity="0.55" filter="url(#nb-xl)"/>
  <!-- Milky Way dust band -->
  <ellipse cx="700" cy="150" rx="650" ry="50"  fill="#a5b4fc" opacity="0.04" filter="url(#nb-lg)"/>
  <!-- Stars -->
  <circle cx="453.4" cy="45.3" r="0.6" fill="white" opacity="0.24"/>
  <circle cx="750.2" cy="109.7" r="0.2" fill="white" opacity="0.45"/>
  <circle cx="52.5" cy="130.1" r="0.2" fill="white" opacity="0.25"/>
  <circle cx="594.3" cy="248.1" r="0.3" fill="white" opacity="0.31"/>
  <circle cx="878.4" cy="284.3" r="0.5" fill="white" opacity="0.40"/>
  <circle cx="1366.8" cy="14.0" r="0.7" fill="white" opacity="0.34"/>
  <circle cx="202.0" cy="35.3" r="0.4" fill="white" opacity="0.61"/>
  <circle cx="253.0" cy="174.5" r="0.6" fill="white" opacity="0.39"/>
  <circle cx="766.8" cy="18.8" r="0.2" fill="white" opacity="0.30"/>
  <circle cx="952.6" cy="128.3" r="0.4" fill="white" opacity="0.49"/>
  <circle cx="634.5" cy="89.9" r="0.7" fill="white" opacity="0.55"/>
  <circle cx="341.7" cy="172.3" r="0.5" fill="white" opacity="0.64"/>
  <circle cx="1021.2" cy="86.4" r="0.8" fill="white" opacity="0.26"/>
  <circle cx="585.4" cy="227.1" r="0.3" fill="white" opacity="0.44"/>
  <circle cx="54.9" cy="200.5" r="0.7" fill="white" opacity="0.49"/>
  <circle cx="1225.7" cy="94.1" r="0.6" fill="white" opacity="0.50"/>
  <circle cx="811.9" cy="136.9" r="0.7" fill="white" opacity="0.67"/>
  <circle cx="663.7" cy="199.2" r="0.2" fill="white" opacity="0.55"/>
  <circle cx="906.0" cy="297.9" r="0.7" fill="white" opacity="0.34"/>
  <circle cx="540.1" cy="200.6" r="0.2" fill="white" opacity="0.43"/>
  <circle cx="235.3" cy="35.1" r="0.2" fill="white" opacity="0.58"/>
  <circle cx="181.1" cy="74.3" r="0.4" fill="white" opacity="0.64"/>
  <circle cx="112.8" cy="134.8" r="0.5" fill="white" opacity="0.64"/>
  <circle cx="1147.0" cy="259.2" r="0.4" fill="white" opacity="0.41"/>
  <circle cx="502.3" cy="265.3" r="0.8" fill="white" opacity="0.28"/>
  <circle cx="246.7" cy="69.6" r="0.3" fill="white" opacity="0.44"/>
  <circle cx="824.8" cy="78.8" r="0.2" fill="white" opacity="0.41"/>
  <circle cx="517.0" cy="169.9" r="0.8" fill="white" opacity="0.55"/>
  <circle cx="721.7" cy="185.3" r="0.6" fill="white" opacity="0.23"/>
  <circle cx="1259.3" cy="234.0" r="0.7" fill="white" opacity="0.60"/>
  <circle cx="549.3" cy="119.7" r="0.3" fill="white" opacity="0.52"/>
  <circle cx="87.1" cy="20.2" r="0.3" fill="white" opacity="0.28"/>
  <circle cx="476.1" cy="15.8" r="0.2" fill="white" opacity="0.28"/>
  <circle cx="142.1" cy="109.1" r="0.2" fill="white" opacity="0.64"/>
  <circle cx="859.7" cy="44.6" r="0.4" fill="white" opacity="0.37"/>
  <circle cx="509.8" cy="36.9" r="0.7" fill="white" opacity="0.70"/>
  <circle cx="652.4" cy="145.2" r="0.3" fill="white" opacity="0.25"/>
  <circle cx="479.7" cy="79.4" r="0.7" fill="white" opacity="0.28"/>
  <circle cx="32.3" cy="285.3" r="0.5" fill="white" opacity="0.27"/>
  <circle cx="760.4" cy="8.1" r="0.5" fill="white" opacity="0.69"/>
  <circle cx="1208.7" cy="208.9" r="0.4" fill="white" opacity="0.38"/>
  <circle cx="233.9" cy="231.6" r="0.5" fill="white" opacity="0.59"/>
  <circle cx="461.5" cy="66.9" r="0.7" fill="white" opacity="0.69"/>
  <circle cx="1193.7" cy="241.8" r="0.7" fill="white" opacity="0.57"/>
  <circle cx="317.4" cy="155.3" r="0.4" fill="white" opacity="0.21"/>
  <circle cx="39.1" cy="83.8" r="0.4" fill="white" opacity="0.55"/>
  <circle cx="1339.1" cy="134.2" r="0.8" fill="white" opacity="0.69"/>
  <circle cx="1337.0" cy="109.4" r="0.3" fill="white" opacity="0.31"/>
  <circle cx="275.4" cy="61.3" r="0.6" fill="white" opacity="0.65"/>
  <circle cx="1176.6" cy="143.8" r="0.6" fill="white" opacity="0.60"/>
  <circle cx="118.7" cy="198.2" r="0.7" fill="white" opacity="0.59"/>
  <circle cx="1050.2" cy="143.4" r="0.3" fill="white" opacity="0.59"/>
  <circle cx="465.5" cy="240.2" r="0.8" fill="white" opacity="0.40"/>
  <circle cx="561.9" cy="284.0" r="0.6" fill="white" opacity="0.29"/>
  <circle cx="177.9" cy="45.3" r="0.7" fill="white" opacity="0.60"/>
  <circle cx="204.6" cy="248.0" r="0.8" fill="white" opacity="0.53"/>
  <circle cx="490.6" cy="164.6" r="0.3" fill="white" opacity="0.21"/>
  <circle cx="1359.2" cy="194.9" r="0.5" fill="white" opacity="0.67"/>
  <circle cx="607.3" cy="261.5" r="0.7" fill="white" opacity="0.31"/>
  <circle cx="352.6" cy="87.9" r="0.3" fill="white" opacity="0.49"/>
  <circle cx="363.1" cy="125.7" r="0.3" fill="white" opacity="0.66"/>
  <circle cx="495.3" cy="137.4" r="0.6" fill="white" opacity="0.65"/>
  <circle cx="588.9" cy="275.3" r="0.5" fill="white" opacity="0.47"/>
  <circle cx="732.9" cy="5.6" r="0.5" fill="white" opacity="0.29"/>
  <circle cx="5.5" cy="239.8" r="0.3" fill="white" opacity="0.44"/>
  <circle cx="1015.3" cy="166.9" r="0.4" fill="white" opacity="0.46"/>
  <circle cx="777.6" cy="235.3" r="0.3" fill="white" opacity="0.48"/>
  <circle cx="347.9" cy="83.1" r="0.7" fill="white" opacity="0.45"/>
  <circle cx="786.4" cy="228.0" r="0.7" fill="white" opacity="0.42"/>
  <circle cx="857.5" cy="151.7" r="0.5" fill="white" opacity="0.55"/>
  <circle cx="633.3" cy="160.0" r="0.5" fill="white" opacity="0.67"/>
  <circle cx="978.9" cy="263.0" r="0.8" fill="white" opacity="0.33"/>
  <circle cx="783.3" cy="283.0" r="0.7" fill="white" opacity="0.27"/>
  <circle cx="170.3" cy="132.6" r="0.2" fill="white" opacity="0.32"/>
  <circle cx="102.4" cy="200.8" r="0.7" fill="white" opacity="0.65"/>
  <circle cx="216.2" cy="214.8" r="0.6" fill="white" opacity="0.27"/>
  <circle cx="1236.0" cy="290.3" r="0.3" fill="white" opacity="0.68"/>
  <circle cx="557.6" cy="146.2" r="0.8" fill="white" opacity="0.62"/>
  <circle cx="226.1" cy="129.5" r="0.5" fill="white" opacity="0.37"/>
  <circle cx="274.0" cy="95.6" r="0.6" fill="white" opacity="0.21"/>
  <circle cx="775.7" cy="132.1" r="0.2" fill="white" opacity="0.37"/>
  <circle cx="873.5" cy="153.7" r="0.2" fill="white" opacity="0.69"/>
  <circle cx="1103.7" cy="291.5" r="0.3" fill="white" opacity="0.33"/>
  <circle cx="55.4" cy="233.7" r="0.4" fill="white" opacity="0.26"/>
  <circle cx="591.2" cy="273.4" r="0.7" fill="white" opacity="0.33"/>
  <circle cx="209.1" cy="275.8" r="0.5" fill="white" opacity="0.55"/>
  <circle cx="125.2" cy="17.3" r="0.6" fill="white" opacity="0.41"/>
  <circle cx="101.4" cy="281.5" r="0.6" fill="white" opacity="0.60"/>
  <circle cx="117.2" cy="256.9" r="0.2" fill="white" opacity="0.63"/>
  <circle cx="635.3" cy="101.7" r="0.5" fill="white" opacity="0.66"/>
  <circle cx="375.0" cy="38.8" r="0.5" fill="white" opacity="0.32"/>
  <circle cx="153.2" cy="48.4" r="0.2" fill="white" opacity="0.30"/>
  <circle cx="436.8" cy="91.5" r="0.7" fill="white" opacity="0.34"/>
  <circle cx="700.1" cy="53.4" r="0.4" fill="white" opacity="0.21"/>
  <circle cx="350.6" cy="4.6" r="0.6" fill="white" opacity="0.48"/>
  <circle cx="265.2" cy="142.4" r="0.8" fill="white" opacity="0.25"/>
  <circle cx="1146.5" cy="129.7" r="0.5" fill="white" opacity="0.62"/>
  <circle cx="550.3" cy="152.0" r="0.6" fill="white" opacity="0.69"/>
  <circle cx="479.8" cy="249.7" r="0.6" fill="white" opacity="0.52"/>
  <circle cx="566.6" cy="104.3" r="0.2" fill="white" opacity="0.26"/>
  <circle cx="99.0" cy="222.3" r="0.4" fill="white" opacity="0.28"/>
  <circle cx="118.3" cy="252.4" r="0.7" fill="white" opacity="0.54"/>
  <circle cx="394.7" cy="72.7" r="0.4" fill="white" opacity="0.43"/>
  <circle cx="220.5" cy="133.7" r="0.4" fill="white" opacity="0.68"/>
  <circle cx="1361.7" cy="164.1" r="0.3" fill="white" opacity="0.68"/>
  <circle cx="433.4" cy="107.0" r="0.2" fill="white" opacity="0.39"/>
  <circle cx="664.5" cy="150.8" r="0.3" fill="white" opacity="0.45"/>
  <circle cx="6.9" cy="79.3" r="0.3" fill="white" opacity="0.40"/>
  <circle cx="58.3" cy="6.7" r="0.4" fill="white" opacity="0.32"/>
  <circle cx="819.8" cy="158.8" r="0.7" fill="white" opacity="0.53"/>
  <circle cx="1002.4" cy="263.7" r="0.4" fill="white" opacity="0.36"/>
  <circle cx="1378.6" cy="44.8" r="0.6" fill="white" opacity="0.52"/>
  <circle cx="61.3" cy="250.6" r="0.7" fill="white" opacity="0.51"/>
  <circle cx="1027.4" cy="243.7" r="0.3" fill="white" opacity="0.46"/>
  <circle cx="706.1" cy="250.5" r="0.7" fill="white" opacity="0.61"/>
  <circle cx="817.7" cy="267.8" r="0.6" fill="white" opacity="0.55"/>
  <circle cx="321.9" cy="9.3" r="0.3" fill="white" opacity="0.38"/>
  <circle cx="146.9" cy="250.7" r="0.5" fill="white" opacity="0.51"/>
  <circle cx="876.7" cy="204.2" r="0.5" fill="white" opacity="0.20"/>
  <circle cx="1116.8" cy="224.5" r="0.5" fill="white" opacity="0.47"/>
  <circle cx="923.0" cy="19.8" r="0.6" fill="white" opacity="0.33"/>
  <circle cx="104.2" cy="79.7" r="0.6" fill="white" opacity="0.30"/>
  <circle cx="1035.8" cy="292.7" r="0.5" fill="white" opacity="0.39"/>
  <circle cx="670.6" cy="205.1" r="0.7" fill="white" opacity="0.51"/>
  <circle cx="899.9" cy="23.2" r="0.3" fill="white" opacity="0.33"/>
  <circle cx="1040.5" cy="91.3" r="0.5" fill="white" opacity="0.21"/>
  <circle cx="84.9" cy="80.6" r="0.6" fill="white" opacity="0.55"/>
  <circle cx="946.0" cy="87.3" r="0.5" fill="white" opacity="0.43"/>
  <circle cx="652.9" cy="35.6" r="0.7" fill="white" opacity="0.30"/>
  <circle cx="1369.4" cy="280.9" r="0.2" fill="white" opacity="0.43"/>
  <circle cx="1147.9" cy="290.4" r="0.5" fill="white" opacity="0.33"/>
  <circle cx="293.8" cy="283.7" r="0.3" fill="white" opacity="0.49"/>
  <circle cx="198.4" cy="157.2" r="0.8" fill="white" opacity="0.27"/>
  <circle cx="1148.3" cy="152.6" r="0.7" fill="white" opacity="0.55"/>
  <circle cx="323.9" cy="269.3" r="0.5" fill="white" opacity="0.21"/>
  <circle cx="5.0" cy="147.5" r="0.5" fill="white" opacity="0.35"/>
  <circle cx="197.0" cy="103.2" r="0.4" fill="white" opacity="0.62"/>
  <circle cx="2.4" cy="225.2" r="0.7" fill="white" opacity="0.26"/>
  <circle cx="1297.0" cy="213.9" r="0.7" fill="white" opacity="0.34"/>
  <circle cx="521.1" cy="117.9" r="0.8" fill="white" opacity="0.49"/>
  <circle cx="505.0" cy="128.4" r="0.4" fill="white" opacity="0.22"/>
  <circle cx="142.4" cy="250.4" r="0.4" fill="white" opacity="0.67"/>
  <circle cx="349.1" cy="79.7" r="0.5" fill="white" opacity="0.29"/>
  <circle cx="522.7" cy="286.8" r="0.7" fill="white" opacity="0.61"/>
  <circle cx="883.3" cy="274.0" r="0.8" fill="white" opacity="0.47"/>
  <circle cx="1007.4" cy="14.8" r="0.6" fill="white" opacity="0.43"/>
  <circle cx="1053.7" cy="193.3" r="0.4" fill="white" opacity="0.22"/>
  <circle cx="1297.5" cy="38.2" r="0.5" fill="white" opacity="0.37"/>
  <circle cx="416.9" cy="221.7" r="0.8" fill="white" opacity="0.33"/>
  <circle cx="918.4" cy="90.3" r="0.5" fill="white" opacity="0.40"/>
  <circle cx="234.3" cy="48.5" r="0.3" fill="white" opacity="0.65"/>
  <circle cx="695.9" cy="66.0" r="0.7" fill="white" opacity="0.70"/>
  <circle cx="629.9" cy="41.9" r="0.3" fill="white" opacity="0.25"/>
  <circle cx="478.7" cy="27.3" r="0.3" fill="white" opacity="0.33"/>
  <circle cx="797.5" cy="266.2" r="0.6" fill="white" opacity="0.41"/>
  <circle cx="579.4" cy="157.3" r="0.4" fill="white" opacity="0.37"/>
  <circle cx="86.9" cy="83.3" r="0.8" fill="white" opacity="0.26"/>
  <circle cx="704.8" cy="188.9" r="0.7" fill="white" opacity="0.31"/>
  <circle cx="379.4" cy="74.5" r="0.4" fill="white" opacity="0.42"/>
  <circle cx="1335.5" cy="254.6" r="0.7" fill="white" opacity="0.21"/>
  <circle cx="45.1" cy="212.9" r="0.7" fill="white" opacity="0.44"/>
  <circle cx="822.0" cy="0.1" r="0.4" fill="white" opacity="0.66"/>
  <circle cx="1155.8" cy="256.6" r="0.8" fill="white" opacity="0.32"/>
  <circle cx="152.7" cy="46.3" r="0.5" fill="white" opacity="0.54"/>
  <circle cx="1318.1" cy="216.5" r="0.6" fill="white" opacity="0.58"/>
  <circle cx="640.3" cy="165.5" r="0.2" fill="white" opacity="0.59"/>
  <circle cx="325.6" cy="276.0" r="0.6" fill="white" opacity="0.35"/>
  <circle cx="179.2" cy="75.5" r="0.6" fill="white" opacity="0.55"/>
  <circle cx="157.0" cy="21.1" r="0.5" fill="white" opacity="0.49"/>
  <circle cx="543.3" cy="67.1" r="0.6" fill="white" opacity="0.21"/>
  <circle cx="422.1" cy="138.2" r="0.8" fill="white" opacity="0.52"/>
  <circle cx="1237.3" cy="142.6" r="0.3" fill="white" opacity="0.32"/>
  <circle cx="1344.9" cy="211.4" r="0.4" fill="white" opacity="0.21"/>
  <circle cx="697.6" cy="202.3" r="0.5" fill="white" opacity="0.33"/>
  <circle cx="934.3" cy="277.5" r="0.3" fill="white" opacity="0.22"/>
  <circle cx="473.3" cy="126.2" r="0.6" fill="white" opacity="0.30"/>
  <circle cx="1115.9" cy="221.7" r="0.5" fill="white" opacity="0.30"/>
  <circle cx="1357.8" cy="93.5" r="0.7" fill="white" opacity="0.32"/>
  <circle cx="310.0" cy="228.1" r="0.4" fill="white" opacity="0.68"/>
  <circle cx="694.1" cy="56.2" r="0.3" fill="white" opacity="0.41"/>
  <circle cx="931.4" cy="284.6" r="0.3" fill="white" opacity="0.40"/>
  <circle cx="298.1" cy="292.2" r="0.3" fill="white" opacity="0.23"/>
  <circle cx="84.2" cy="118.0" r="0.7" fill="white" opacity="0.64"/>
  <circle cx="1025.8" cy="299.3" r="0.8" fill="white" opacity="0.36"/>
  <circle cx="259.7" cy="280.8" r="0.6" fill="white" opacity="0.22"/>
  <circle cx="930.2" cy="113.6" r="0.4" fill="white" opacity="0.37"/>
  <circle cx="237.0" cy="0.9" r="0.4" fill="white" opacity="0.38"/>
  <circle cx="1337.7" cy="37.1" r="0.8" fill="white" opacity="0.30"/>
  <circle cx="499.3" cy="246.5" r="0.7" fill="white" opacity="0.42"/>
  <circle cx="69.0" cy="142.0" r="0.4" fill="white" opacity="0.66"/>
  <circle cx="270.2" cy="109.3" r="0.7" fill="white" opacity="0.22"/>
  <circle cx="575.1" cy="243.5" r="0.7" fill="white" opacity="0.22"/>
  <circle cx="48.8" cy="18.8" r="0.8" fill="white" opacity="0.33"/>
  <circle cx="1046.2" cy="269.6" r="0.4" fill="white" opacity="0.34"/>
  <circle cx="1340.8" cy="185.1" r="0.4" fill="white" opacity="0.56"/>
  <circle cx="443.1" cy="82.7" r="0.2" fill="white" opacity="0.58"/>
  <circle cx="1283.0" cy="190.2" r="0.8" fill="white" opacity="0.21"/>
  <circle cx="327.4" cy="142.6" r="0.8" fill="white" opacity="0.68"/>
  <circle cx="541.1" cy="75.3" r="0.5" fill="white" opacity="0.45"/>
  <circle cx="1299.3" cy="54.9" r="0.7" fill="white" opacity="0.57"/>
  <circle cx="1151.9" cy="231.8" r="0.6" fill="white" opacity="0.36"/>
  <circle cx="447.4" cy="108.6" r="0.7" fill="white" opacity="0.24"/>
  <circle cx="276.2" cy="225.9" r="0.3" fill="white" opacity="0.23"/>
  <circle cx="47.4" cy="165.8" r="0.4" fill="white" opacity="0.69"/>
  <circle cx="1236.9" cy="296.3" r="0.4" fill="white" opacity="0.24"/>
  <circle cx="135.0" cy="149.5" r="0.6" fill="white" opacity="0.42"/>
  <circle cx="327.9" cy="125.1" r="0.6" fill="white" opacity="0.54"/>
  <circle cx="1047.2" cy="254.1" r="0.6" fill="white" opacity="0.26"/>
  <circle cx="1177.2" cy="88.1" r="0.5" fill="white" opacity="0.39"/>
  <circle cx="1033.3" cy="59.8" r="0.3" fill="white" opacity="0.32"/>
  <circle cx="214.7" cy="265.3" r="0.5" fill="white" opacity="0.36"/>
  <circle cx="554.5" cy="297.7" r="0.5" fill="white" opacity="0.32"/>
  <circle cx="1131.8" cy="196.0" r="0.8" fill="white" opacity="0.25"/>
  <circle cx="664.7" cy="245.7" r="0.7" fill="white" opacity="0.66"/>
  <circle cx="56.5" cy="88.1" r="0.3" fill="white" opacity="0.29"/>
  <circle cx="1362.2" cy="175.0" r="0.8" fill="white" opacity="0.39"/>
  <circle cx="1212.6" cy="134.7" r="0.4" fill="white" opacity="0.59"/>
  <circle cx="1324.0" cy="31.7" r="0.6" fill="white" opacity="0.51"/>
  <circle cx="304.7" cy="110.6" r="0.3" fill="white" opacity="0.30"/>
  <circle cx="356.9" cy="179.8" r="0.6" fill="white" opacity="0.30"/>
  <circle cx="15.9" cy="98.2" r="0.6" fill="white" opacity="0.29"/>
  <circle cx="437.1" cy="61.0" r="0.7" fill="white" opacity="0.47"/>
  <circle cx="88.6" cy="30.4" r="0.4" fill="white" opacity="0.48"/>
  <circle cx="894.9" cy="27.3" r="0.3" fill="white" opacity="0.55"/>
  <circle cx="573.7" cy="85.0" r="0.4" fill="white" opacity="0.68"/>
  <circle cx="437.3" cy="170.0" r="0.4" fill="white" opacity="0.41"/>
  <circle cx="1209.9" cy="299.0" r="0.4" fill="white" opacity="0.30"/>
  <circle cx="1019.2" cy="61.1" r="0.2" fill="white" opacity="0.65"/>
  <circle cx="593.3" cy="246.1" r="0.4" fill="white" opacity="0.64"/>
  <circle cx="645.3" cy="48.8" r="0.2" fill="white" opacity="0.48"/>
  <circle cx="896.9" cy="272.9" r="0.3" fill="white" opacity="0.51"/>
  <circle cx="519.2" cy="151.3" r="0.3" fill="white" opacity="0.34"/>
  <circle cx="729.6" cy="277.6" r="0.3" fill="white" opacity="0.45"/>
  <circle cx="1126.7" cy="290.1" r="0.3" fill="white" opacity="0.26"/>
  <circle cx="1320.3" cy="292.7" r="0.5" fill="white" opacity="0.23"/>
  <circle cx="1296.6" cy="116.4" r="0.7" fill="white" opacity="0.51"/>
  <circle cx="1154.4" cy="48.1" r="0.7" fill="white" opacity="0.31"/>
  <circle cx="566.3" cy="253.9" r="0.7" fill="white" opacity="0.29"/>
  <circle cx="305.4" cy="119.9" r="0.5" fill="white" opacity="0.39"/>
  <circle cx="172.3" cy="74.1" r="0.6" fill="white" opacity="0.65"/>
  <circle cx="57.5" cy="168.7" r="0.7" fill="white" opacity="0.22"/>
  <circle cx="1173.5" cy="35.3" r="0.6" fill="white" opacity="0.48"/>
  <circle cx="877.9" cy="91.9" r="0.5" fill="white" opacity="0.49"/>
  <circle cx="596.0" cy="197.7" r="0.5" fill="white" opacity="0.42"/>
  <circle cx="32.7" cy="185.7" r="0.5" fill="white" opacity="0.32"/>
  <circle cx="1069.0" cy="234.0" r="0.5" fill="white" opacity="0.29"/>
  <circle cx="662.5" cy="32.1" r="0.3" fill="white" opacity="0.42"/>
  <circle cx="128.4" cy="132.6" r="0.5" fill="white" opacity="0.22"/>
  <circle cx="891.0" cy="24.7" r="0.6" fill="white" opacity="0.59"/>
  <circle cx="716.1" cy="16.3" r="0.5" fill="white" opacity="0.39"/>
  <circle cx="1331.2" cy="40.9" r="0.7" fill="white" opacity="0.70"/>
  <circle cx="1024.9" cy="244.5" r="0.3" fill="white" opacity="0.69"/>
  <circle cx="688.6" cy="287.0" r="0.7" fill="white" opacity="0.28"/>
  <circle cx="1103.7" cy="279.2" r="0.2" fill="white" opacity="0.38"/>
  <circle cx="1058.7" cy="47.6" r="0.7" fill="white" opacity="0.34"/>
  <circle cx="1141.9" cy="43.1" r="0.5" fill="white" opacity="0.66"/>
  <circle cx="291.7" cy="78.9" r="0.5" fill="white" opacity="0.36"/>
  <circle cx="51.6" cy="54.6" r="0.3" fill="white" opacity="0.67"/>
  <circle cx="951.6" cy="268.6" r="0.3" fill="white" opacity="0.59"/>
  <circle cx="161.1" cy="159.2" r="0.6" fill="white" opacity="0.38"/>
  <circle cx="1222.1" cy="166.6" r="0.5" fill="white" opacity="0.64"/>
  <circle cx="146.5" cy="297.9" r="0.6" fill="white" opacity="0.40"/>
  <circle cx="1116.7" cy="79.4" r="0.8" fill="white" opacity="0.49"/>
  <circle cx="504.4" cy="229.4" r="0.5" fill="white" opacity="0.29"/>
  <circle cx="1041.0" cy="14.5" r="0.7" fill="white" opacity="0.33"/>
  <circle cx="894.9" cy="295.2" r="0.6" fill="white" opacity="0.53"/>
  <circle cx="437.7" cy="0.5" r="0.2" fill="white" opacity="0.27"/>
  <circle cx="862.5" cy="129.7" r="0.5" fill="white" opacity="0.65"/>
  <circle cx="184.8" cy="68.2" r="0.6" fill="white" opacity="0.21"/>
  <circle cx="3.7" cy="106.5" r="0.3" fill="white" opacity="0.38"/>
  <circle cx="314.0" cy="175.1" r="0.6" fill="white" opacity="0.30"/>
  <circle cx="873.5" cy="142.5" r="0.3" fill="white" opacity="0.67"/>
  <circle cx="341.0" cy="44.8" r="0.3" fill="white" opacity="0.52"/>
  <circle cx="1219.8" cy="234.6" r="0.4" fill="white" opacity="0.33"/>
  <circle cx="16.1" cy="193.5" r="0.5" fill="white" opacity="0.38"/>
  <circle cx="903.8" cy="133.1" r="0.8" fill="white" opacity="0.57"/>
  <circle cx="347.9" cy="271.1" r="0.2" fill="white" opacity="0.47"/>
  <circle cx="568.4" cy="71.3" r="0.2" fill="white" opacity="0.59"/>
  <circle cx="17.3" cy="165.3" r="0.8" fill="white" opacity="0.27"/>
  <circle cx="279.3" cy="182.4" r="0.5" fill="white" opacity="0.52"/>
  <circle cx="1138.7" cy="52.4" r="1.0" fill="white" opacity="0.64"/>
  <circle cx="67.9" cy="266.8" r="1.4" fill="white" opacity="0.82"/>
  <circle cx="8.9" cy="253.3" r="1.4" fill="white" opacity="0.71"/>
  <circle cx="1038.5" cy="135.7" r="1.0" fill="white" opacity="0.55"/>
  <circle cx="325.2" cy="11.6" r="1.1" fill="white" opacity="0.84"/>
  <circle cx="973.2" cy="253.6" r="1.4" fill="white" opacity="0.62"/>
  <circle cx="775.3" cy="130.8" r="1.4" fill="white" opacity="0.74"/>
  <circle cx="371.4" cy="192.6" r="1.6" fill="white" opacity="0.60"/>
  <circle cx="1232.1" cy="4.6" r="1.0" fill="white" opacity="0.61"/>
  <circle cx="1041.4" cy="283.4" r="1.4" fill="white" opacity="0.65"/>
  <circle cx="1232.2" cy="98.6" r="1.0" fill="white" opacity="0.91"/>
  <circle cx="883.0" cy="207.9" r="1.3" fill="white" opacity="0.94"/>
  <circle cx="657.3" cy="251.9" r="1.4" fill="white" opacity="0.89"/>
  <circle cx="612.1" cy="217.4" r="1.3" fill="white" opacity="0.64"/>
  <circle cx="296.8" cy="186.8" r="0.9" fill="white" opacity="0.91"/>
  <circle cx="202.4" cy="8.1" r="0.9" fill="white" opacity="0.92"/>
  <circle cx="482.8" cy="42.6" r="0.8" fill="white" opacity="0.52"/>
  <circle cx="969.7" cy="190.2" r="1.4" fill="white" opacity="0.83"/>
  <circle cx="92.1" cy="177.1" r="1.1" fill="white" opacity="0.87"/>
  <circle cx="1147.4" cy="267.4" r="0.9" fill="white" opacity="0.89"/>
  <circle cx="1280.2" cy="283.3" r="0.9" fill="white" opacity="0.59"/>
  <circle cx="156.8" cy="10.3" r="1.5" fill="white" opacity="0.87"/>
  <circle cx="887.8" cy="247.5" r="1.3" fill="white" opacity="0.63"/>
  <circle cx="139.8" cy="29.4" r="1.4" fill="white" opacity="0.59"/>
  <circle cx="446.8" cy="127.1" r="0.8" fill="white" opacity="0.62"/>
  <circle cx="395.6" cy="214.7" r="1.1" fill="white" opacity="0.64"/>
  <circle cx="1349.6" cy="151.1" r="1.5" fill="white" opacity="0.78"/>
  <circle cx="43.4" cy="123.9" r="1.1" fill="white" opacity="0.85"/>
  <circle cx="485.5" cy="211.4" r="1.2" fill="white" opacity="0.60"/>
  <circle cx="1207.1" cy="27.3" r="1.5" fill="white" opacity="0.58"/>
  <circle cx="1.8" cy="60.6" r="1.4" fill="white" opacity="0.94"/>
  <circle cx="6.1" cy="147.2" r="1.2" fill="white" opacity="0.86"/>
  <circle cx="258.3" cy="148.4" r="1.1" fill="white" opacity="0.87"/>
  <circle cx="364.8" cy="283.2" r="1.0" fill="white" opacity="0.60"/>
  <circle cx="979.3" cy="149.5" r="0.9" fill="white" opacity="0.79"/>
  <circle cx="113.2" cy="236.4" r="1.4" fill="white" opacity="0.85"/>
  <circle cx="879.1" cy="106.7" r="1.1" fill="white" opacity="0.68"/>
  <circle cx="1246.6" cy="25.9" r="1.5" fill="white" opacity="0.51"/>
  <circle cx="288.6" cy="79.0" r="1.5" fill="white" opacity="0.73"/>
  <circle cx="531.0" cy="265.2" r="1.0" fill="white" opacity="0.71"/>
  <circle cx="744.2" cy="226.3" r="1.4" fill="white" opacity="0.79"/>
  <circle cx="487.9" cy="98.0" r="0.9" fill="white" opacity="0.88"/>
  <circle cx="926.9" cy="222.6" r="0.9" fill="white" opacity="0.70"/>
  <circle cx="1082.8" cy="173.8" r="0.9" fill="white" opacity="0.71"/>
  <circle cx="1239.2" cy="71.4" r="1.0" fill="white" opacity="0.64"/>
  <circle cx="984.4" cy="253.1" r="0.9" fill="white" opacity="0.57"/>
  <circle cx="346.6" cy="98.0" r="1.2" fill="white" opacity="0.57"/>
  <circle cx="459.3" cy="56.8" r="1.6" fill="white" opacity="0.83"/>
  <circle cx="142.5" cy="288.7" r="0.9" fill="white" opacity="0.67"/>
  <circle cx="1377.4" cy="238.5" r="1.4" fill="white" opacity="0.70"/>
  <circle cx="274.7" cy="191.4" r="0.9" fill="white" opacity="0.59"/>
  <circle cx="543.7" cy="10.2" r="1.1" fill="white" opacity="0.86"/>
  <circle cx="970.8" cy="150.1" r="1.3" fill="white" opacity="0.71"/>
  <circle cx="198.5" cy="181.1" r="1.1" fill="white" opacity="0.83"/>
  <circle cx="1271.2" cy="129.0" r="1.3" fill="white" opacity="0.84"/>
  <circle cx="595.9" cy="74.0" r="2.2" fill="white" opacity="0.97" filter="url(#sglow)"/>
  <circle cx="1061.7" cy="206.0" r="2.4" fill="white" opacity="0.92" filter="url(#sglow)"/>
  <circle cx="886.8" cy="137.1" r="1.8" fill="white" opacity="0.91" filter="url(#sglow)"/>
  <circle cx="169.2" cy="127.5" r="2.3" fill="white" opacity="0.93" filter="url(#sglow)"/>
  <circle cx="871.1" cy="80.0" r="1.9" fill="white" opacity="0.86" filter="url(#sglow)"/>
  <circle cx="860.5" cy="124.6" r="2.2" fill="white" opacity="0.98" filter="url(#sglow)"/>
  <circle cx="281.6" cy="193.3" r="2.3" fill="white" opacity="0.85" filter="url(#sglow)"/>
  <circle cx="686.6" cy="282.9" r="1.5" fill="white" opacity="0.89" filter="url(#sglow)"/>
  <circle cx="252.3" cy="228.9" r="2.4" fill="white" opacity="0.88" filter="url(#sglow)"/>
  <circle cx="173.4" cy="170.9" r="2.0" fill="white" opacity="0.93" filter="url(#sglow)"/>
  <circle cx="716.1" cy="189.0" r="2.3" fill="white" opacity="0.88" filter="url(#sglow)"/>
  <circle cx="581.7" cy="275.4" r="1.7" fill="white" opacity="0.92" filter="url(#sglow)"/>
  <circle cx="558.1" cy="223.6" r="1.6" fill="white" opacity="1.00" filter="url(#sglow)"/>
  <circle cx="509.2" cy="25.9" r="1.8" fill="white" opacity="0.85" filter="url(#sglow)"/>
  <circle cx="18.6" cy="125.6" r="0.9" fill="#a5f3fc" opacity="0.66"/>
  <circle cx="153.0" cy="91.0" r="0.9" fill="#bfdbfe" opacity="0.84"/>
  <circle cx="1391.9" cy="288.3" r="0.9" fill="#67e8f9" opacity="0.46"/>
  <circle cx="1087.3" cy="242.9" r="1.1" fill="#fde68a" opacity="0.69"/>
  <circle cx="1009.0" cy="244.4" r="0.6" fill="#fde68a" opacity="0.61"/>
  <circle cx="412.1" cy="164.5" r="0.6" fill="#fde68a" opacity="0.56"/>
  <circle cx="1190.9" cy="80.2" r="0.8" fill="#a5f3fc" opacity="0.84"/>
  <circle cx="950.3" cy="144.5" r="1.2" fill="#a5f3fc" opacity="0.56"/>
  <circle cx="916.2" cy="96.1" r="0.9" fill="#bfdbfe" opacity="0.69"/>
  <circle cx="923.0" cy="108.7" r="1.3" fill="#fde68a" opacity="0.43"/>
  <circle cx="1159.1" cy="271.7" r="1.2" fill="#67e8f9" opacity="0.64"/>
  <circle cx="483.2" cy="174.7" r="1.1" fill="#67e8f9" opacity="0.83"/>
  <circle cx="918.3" cy="75.0" r="0.6" fill="#67e8f9" opacity="0.78"/>
  <circle cx="259.9" cy="135.6" r="1.2" fill="#67e8f9" opacity="0.81"/>
  <circle cx="1108.3" cy="50.4" r="1.3" fill="#bfdbfe" opacity="0.84"/>
  <circle cx="126.6" cy="270.5" r="1.0" fill="#a5f3fc" opacity="0.49"/>
  <circle cx="969.9" cy="159.2" r="1.2" fill="#fde68a" opacity="0.70"/>
  <circle cx="163.8" cy="35.5" r="0.9" fill="#67e8f9" opacity="0.61"/>
  <circle cx="780.1" cy="145.3" r="1.3" fill="#fde68a" opacity="0.51"/>
  <circle cx="230.5" cy="179.9" r="1.2" fill="#67e8f9" opacity="0.78"/>
  <circle cx="655.1" cy="168.8" r="1.1" fill="#fde68a" opacity="0.57"/>
  <circle cx="586.3" cy="288.2" r="0.6" fill="#a5f3fc" opacity="0.69"/>
  <circle cx="39.9" cy="182.9" r="1.1" fill="#a5f3fc" opacity="0.76"/>
  <circle cx="131.6" cy="145.3" r="1.2" fill="#67e8f9" opacity="0.42"/>
  <circle cx="1005.5" cy="187.6" r="0.8" fill="#a5f3fc" opacity="0.55"/>
  <circle cx="1089.9" cy="166.2" r="1.3" fill="#a5f3fc" opacity="0.60"/>
  <circle cx="591.3" cy="166.2" r="1.2" fill="#a5f3fc" opacity="0.56"/>
  <circle cx="691.2" cy="100.1" r="1.4" fill="#bfdbfe" opacity="0.56"/>
  <circle cx="284.9" cy="147.7" r="0.6" fill="#67e8f9" opacity="0.54"/>
  <circle cx="418.9" cy="175.9" r="1.1" fill="#c7d2fe" opacity="0.58"/>
</svg>